<svg xmlns="http://www.w3.org/2000/svg"  viewBox="0 0 24 24" width="48px" height="48px" baseProfile="basic"><path fill="none" stroke="#000" stroke-miterlimit="10" stroke-width="2" d="M11.103,11.986l4.817-3.665"/><path fill="none" stroke="#000" stroke-miterlimit="10" stroke-width="2" d="M5.796,12.066	c-1.482,1.349-2.506,2.282-2.506,2.282c-0.405,0.374-0.382,1.021,0.048,1.365c0,0,0.596,0.555,0.812,0.709	c0.331,0.236,0.767,0.263,1.095,0.023l2.945-2.241"/><path fill="none" stroke="#000" stroke-miterlimit="10" stroke-width="2" d="M15.794,15.575L5.244,7.535	C4.916,7.294,4.481,7.321,4.15,7.558C3.934,7.712,3.338,8.266,3.338,8.266C2.908,8.611,2.885,9.258,3.29,9.631l12.153,11.055	c0.32,0.291,0.783,0.36,1.172,0.172c1.228-0.591,2.998-1.444,3.736-1.799c0.398-0.191,0.65-0.593,0.65-1.035V5.933	c0-0.442-0.253-0.845-0.653-1.035c-0.688-0.328-2.384-1.138-3.74-1.785c-0.39-0.186-0.849-0.118-1.168,0.172	c-1.61,1.467-4.532,4.127-7.106,6.471"/><path fill="none" stroke="#000" stroke-miterlimit="10" stroke-width="2" d="M16,20.762V3.223"/><path d="M16,3l-7.654,7.065L4.731,7.388L3,9l3.25,3L3,15l1.731,1.612l3.615-2.677L16,21l5-2V5L16,3z M10.958,12L16,8.662v6.676 L10.958,12z" opacity=".3"/></svg>